<mxfile host="Electron" agent="Mozilla/5.0 (Windows NT 10.0; Win64; x64) AppleWebKit/537.36 (KHTML, like Gecko) draw.io/25.0.1 Chrome/128.0.6613.186 Electron/32.2.6 Safari/537.36" version="25.0.1">
  <diagram name="Page-1" id="erC-LLJLPAN6CaFBrpyN">
    <mxGraphModel dx="594" dy="392" grid="1" gridSize="10" guides="1" tooltips="1" connect="1" arrows="1" fold="1" page="1" pageScale="1" pageWidth="827" pageHeight="1169" math="0" shadow="0">
      <root>
        <mxCell id="0" />
        <mxCell id="1" parent="0" />
        <mxCell id="eQyDEeYYf4bVebTJRb8L-1" value="input" style="rounded=0;whiteSpace=wrap;html=1;strokeWidth=2;" vertex="1" parent="1">
          <mxGeometry x="40" y="160" width="430" height="240" as="geometry" />
        </mxCell>
        <mxCell id="eQyDEeYYf4bVebTJRb8L-4" value="360p" style="text;html=1;align=center;verticalAlign=middle;whiteSpace=wrap;rounded=0;" vertex="1" parent="1">
          <mxGeometry x="470" y="270" width="40" height="20" as="geometry" />
        </mxCell>
        <mxCell id="eQyDEeYYf4bVebTJRb8L-5" value="640p" style="text;html=1;align=center;verticalAlign=middle;whiteSpace=wrap;rounded=0;" vertex="1" parent="1">
          <mxGeometry x="230" y="400" width="60" height="20" as="geometry" />
        </mxCell>
        <UserObject label="ffmpeg -i input.webm -vf &#xa;    &quot;crop=90:360:220:0,transpose=2,scale=trunc(oh*a/2)*2:64&quot; &#xa;    -pix_fmt gbrp output.webm" link="ffmpeg -i fire-full.webm -vf &quot;crop=90:360:220:0,transpose=2,scale=trunc(oh*a/2)*2:64&quot; -pix_fmt gbrp fireeeeeee.webm" id="eQyDEeYYf4bVebTJRb8L-10">
          <mxCell style="text;whiteSpace=wrap;fontFamily=Lucida Console;fontColor=#CC0000;" vertex="1" parent="1">
            <mxGeometry x="40" y="430" width="450" height="60" as="geometry" />
          </mxCell>
        </UserObject>
        <mxCell id="eQyDEeYYf4bVebTJRb8L-11" value="" style="rounded=0;whiteSpace=wrap;html=1;fillColor=#FFCCCC;strokeWidth=2;strokeColor=#CC0000;" vertex="1" parent="1">
          <mxGeometry x="160" y="160" width="60" height="240" as="geometry" />
        </mxCell>
        <mxCell id="eQyDEeYYf4bVebTJRb8L-12" value="" style="endArrow=open;startArrow=open;html=1;rounded=0;exitX=0;exitY=0.75;exitDx=0;exitDy=0;entryX=1;entryY=0.75;entryDx=0;entryDy=0;startFill=0;endFill=0;" edge="1" parent="1" source="eQyDEeYYf4bVebTJRb8L-11" target="eQyDEeYYf4bVebTJRb8L-11">
          <mxGeometry width="50" height="50" relative="1" as="geometry">
            <mxPoint x="360" y="360" as="sourcePoint" />
            <mxPoint x="410" y="310" as="targetPoint" />
          </mxGeometry>
        </mxCell>
        <mxCell id="eQyDEeYYf4bVebTJRb8L-13" value="" style="endArrow=open;startArrow=open;html=1;rounded=0;exitX=0.75;exitY=1;exitDx=0;exitDy=0;entryX=0.75;entryY=0;entryDx=0;entryDy=0;startFill=0;endFill=0;" edge="1" parent="1" source="eQyDEeYYf4bVebTJRb8L-11" target="eQyDEeYYf4bVebTJRb8L-11">
          <mxGeometry width="50" height="50" relative="1" as="geometry">
            <mxPoint x="130" y="350" as="sourcePoint" />
            <mxPoint x="210" y="350" as="targetPoint" />
          </mxGeometry>
        </mxCell>
        <mxCell id="eQyDEeYYf4bVebTJRb8L-14" value="90" style="text;html=1;align=center;verticalAlign=middle;whiteSpace=wrap;rounded=0;" vertex="1" parent="1">
          <mxGeometry x="160" y="340" width="40" height="20" as="geometry" />
        </mxCell>
        <mxCell id="eQyDEeYYf4bVebTJRb8L-15" value="360" style="text;html=1;align=center;verticalAlign=middle;whiteSpace=wrap;rounded=0;rotation=270;" vertex="1" parent="1">
          <mxGeometry x="175" y="190" width="40" height="30" as="geometry" />
        </mxCell>
        <mxCell id="eQyDEeYYf4bVebTJRb8L-16" value="" style="endArrow=open;html=1;rounded=0;exitX=0;exitY=0.25;exitDx=0;exitDy=0;entryX=0;entryY=0.25;entryDx=0;entryDy=0;endFill=0;" edge="1" parent="1" source="eQyDEeYYf4bVebTJRb8L-1" target="eQyDEeYYf4bVebTJRb8L-11">
          <mxGeometry width="50" height="50" relative="1" as="geometry">
            <mxPoint x="360" y="360" as="sourcePoint" />
            <mxPoint x="410" y="310" as="targetPoint" />
          </mxGeometry>
        </mxCell>
        <mxCell id="eQyDEeYYf4bVebTJRb8L-17" value="220" style="text;html=1;align=center;verticalAlign=middle;whiteSpace=wrap;rounded=0;" vertex="1" parent="1">
          <mxGeometry x="60" y="200" width="40" height="20" as="geometry" />
        </mxCell>
        <mxCell id="eQyDEeYYf4bVebTJRb8L-18" value="" style="endArrow=open;html=1;rounded=0;entryX=0.25;entryY=0;entryDx=0;entryDy=0;endFill=0;" edge="1" parent="1" target="eQyDEeYYf4bVebTJRb8L-11">
          <mxGeometry width="50" height="50" relative="1" as="geometry">
            <mxPoint x="175" y="140" as="sourcePoint" />
            <mxPoint x="180" y="140" as="targetPoint" />
          </mxGeometry>
        </mxCell>
        <mxCell id="eQyDEeYYf4bVebTJRb8L-19" value="0" style="text;html=1;align=center;verticalAlign=middle;whiteSpace=wrap;rounded=0;" vertex="1" parent="1">
          <mxGeometry x="150" y="140" width="25" height="20" as="geometry" />
        </mxCell>
      </root>
    </mxGraphModel>
  </diagram>
</mxfile>
